<?xml version="1.0" encoding="UTF-8" standalone="no"?>
<!DOCTYPE svg PUBLIC "-//W3C//DTD SVG 20010904//EN"
              "http://www.w3.org/TR/2001/REC-SVG-20010904/DTD/svg10.dtd">

<svg xmlns="http://www.w3.org/2000/svg"
     width="23.1528in" height="7.80556in"
     viewBox="0 0 1667 562">
  <path id="Selection"
        fill="#e2f7ff" stroke="none" stroke-width="1"
        d="M 1108.00,128.42
           C 1127.01,126.11 1157.31,131.39 1173.00,142.63
             1183.51,150.16 1190.98,163.08 1191.00,176.00
             1191.00,176.00 1191.00,181.00 1191.00,181.00
             1190.94,185.42 1189.81,193.88 1188.39,198.00
             1186.75,202.77 1176.79,219.69 1173.50,224.00
             1169.83,228.81 1158.47,240.95 1159.53,247.00
             1160.23,250.92 1163.79,253.03 1167.00,254.74
             1167.00,254.74 1193.00,269.29 1193.00,269.29
             1197.58,270.64 1200.23,268.35 1202.96,264.96
             1202.96,264.96 1215.43,244.00 1215.43,244.00
             1223.44,230.11 1244.21,206.32 1257.00,196.85
             1264.54,191.26 1267.97,187.14 1278.00,187.00
             1278.00,187.00 1288.00,187.00 1288.00,187.00
             1301.83,187.02 1308.75,193.20 1319.00,201.75
             1327.60,208.93 1341.24,226.41 1345.03,237.00
             1346.17,240.19 1346.77,248.31 1347.16,252.00
             1348.64,265.78 1349.02,279.49 1345.40,293.00
             1343.84,298.81 1335.06,317.34 1331.47,322.00
             1320.22,336.63 1298.80,351.10 1281.00,356.38
             1273.87,358.50 1259.65,359.09 1252.00,359.00
             1240.22,358.86 1220.63,349.39 1213.61,340.00
             1209.31,334.26 1204.13,323.09 1199.95,319.30
             1197.93,317.48 1194.86,315.11 1192.00,315.26
             1188.27,315.45 1181.85,320.87 1179.00,323.27
             1173.12,328.24 1160.17,339.68 1154.00,343.04
             1154.00,343.04 1114.00,363.31 1114.00,363.31
             1114.00,363.31 1093.00,373.58 1093.00,373.58
             1086.79,376.19 1079.49,378.76 1073.00,380.51
             1073.00,380.51 1067.00,381.63 1067.00,381.63
             1067.00,381.63 1059.00,384.49 1059.00,384.49
             1045.37,387.95 1028.07,389.16 1014.00,389.00
             1003.18,388.87 994.96,385.53 987.09,378.18
             985.20,376.41 982.46,374.27 981.56,371.82
             980.80,369.77 980.98,364.39 981.00,362.00
             981.00,362.00 981.96,352.00 981.96,352.00
             981.96,352.00 981.96,341.00 981.96,341.00
             982.22,322.33 994.22,293.93 1002.22,277.00
             1002.22,277.00 1008.31,263.00 1008.31,263.00
             1008.31,263.00 1017.08,244.00 1017.08,244.00
             1017.08,244.00 1020.45,234.00 1020.45,234.00
             1020.45,234.00 1031.50,208.00 1031.50,208.00
             1031.50,208.00 1036.46,193.00 1036.46,193.00
             1039.69,184.74 1041.62,183.22 1044.24,173.00
             1046.26,165.13 1045.34,157.85 1051.39,151.21
             1053.11,149.31 1055.90,147.55 1058.00,145.97
             1062.19,142.81 1066.26,139.70 1071.00,137.37
             1074.46,135.68 1092.93,130.14 1097.00,129.37
             1097.00,129.37 1108.00,128.42 1108.00,128.42 Z
           M 319.00,147.67
           C 327.30,146.41 333.88,147.36 342.00,147.67
             345.24,148.13 350.13,147.68 353.00,148.55
             357.06,149.77 364.21,154.85 360.38,159.69
             358.21,162.43 353.35,161.90 350.00,162.76
             350.00,162.76 332.00,170.28 332.00,170.28
             332.00,170.28 318.00,174.38 318.00,174.38
             318.00,174.38 292.00,183.80 292.00,183.80
             292.00,183.80 280.00,186.36 280.00,186.36
             280.00,186.36 266.00,189.73 266.00,189.73
             266.00,189.73 248.00,194.63 248.00,194.63
             242.93,195.83 237.37,196.46 233.41,200.41
             225.33,208.47 227.12,219.73 227.00,230.00
             227.00,230.00 222.09,263.00 222.09,263.00
             220.95,279.61 217.60,292.21 212.74,308.00
             212.74,308.00 207.82,327.00 207.82,327.00
             204.68,336.87 200.26,344.73 196.09,354.00
             190.28,366.93 190.91,369.81 181.91,384.00
             172.69,398.52 155.85,413.97 139.91,420.91
             139.91,420.91 130.00,423.92 130.00,423.92
             119.44,427.18 124.71,428.16 111.00,428.00
             84.47,427.69 50.41,407.21 37.80,384.00
             34.24,377.46 27.35,361.26 29.51,354.00
             30.90,349.33 37.46,342.17 42.88,343.47
             45.90,344.20 47.08,347.41 48.09,350.00
             51.15,357.89 51.42,362.08 56.55,370.00
             60.33,375.84 62.99,377.74 68.00,382.15
             78.84,391.70 85.67,395.45 100.00,397.68
             110.53,399.32 111.63,396.75 120.00,392.73
             135.02,385.52 145.12,380.04 154.24,365.00
             154.24,365.00 160.26,353.00 160.26,353.00
             160.26,353.00 166.69,341.00 166.69,341.00
             171.16,331.34 181.41,302.06 183.49,292.00
             183.49,292.00 184.37,286.00 184.37,286.00
             184.37,286.00 186.67,278.00 186.67,278.00
             186.67,278.00 188.18,262.00 188.18,262.00
             188.18,262.00 189.52,255.00 189.52,255.00
             189.52,255.00 189.52,249.00 189.52,249.00
             190.19,241.94 193.90,233.63 194.00,225.00
             194.02,222.67 194.26,218.24 192.98,216.31
             191.49,214.07 188.42,213.93 186.00,213.58
             177.96,212.41 171.55,215.66 164.00,217.48
             164.00,217.48 116.00,230.58 116.00,230.58
             116.00,230.58 102.00,232.46 102.00,232.46
             102.00,232.46 85.00,235.83 85.00,235.83
             77.46,236.57 64.56,232.40 61.60,224.91
             60.92,223.19 60.96,219.89 61.02,218.00
             61.23,210.44 64.49,208.00 71.00,204.94
             71.00,204.94 90.00,200.38 90.00,200.38
             90.00,200.38 99.00,196.79 99.00,196.79
             99.00,196.79 110.00,194.78 110.00,194.78
             115.35,193.12 115.30,191.76 121.57,191.18
             136.96,189.74 149.47,182.87 162.00,180.46
             162.00,180.46 222.00,167.26 222.00,167.26
             222.00,167.26 244.00,160.52 244.00,160.52
             244.00,160.52 251.00,159.41 251.00,159.41
             251.00,159.41 264.00,156.26 264.00,156.26
             264.00,156.26 271.00,155.49 271.00,155.49
             271.00,155.49 286.00,151.33 286.00,151.33
             286.00,151.33 308.00,148.17 308.00,148.17
             308.00,148.17 319.00,147.67 319.00,147.67 Z
           M 1484.00,147.92
           C 1497.32,144.14 1509.59,164.48 1504.77,176.00
             1503.14,179.92 1500.07,182.65 1497.60,186.00
             1497.60,186.00 1485.63,204.00 1485.63,204.00
             1485.63,204.00 1482.60,211.00 1482.60,211.00
             1482.60,211.00 1476.30,222.00 1476.30,222.00
             1476.30,222.00 1467.40,235.00 1467.40,235.00
             1467.40,235.00 1461.35,243.00 1461.35,243.00
             1461.35,243.00 1456.26,253.00 1456.26,253.00
             1445.34,271.88 1430.33,299.98 1422.31,320.00
             1422.31,320.00 1414.02,346.00 1414.02,346.00
             1414.02,346.00 1410.08,356.00 1410.08,356.00
             1407.65,363.03 1406.53,370.03 1398.00,372.49
             1388.73,375.15 1379.44,364.08 1378.21,356.00
             1377.67,352.47 1378.60,347.54 1379.26,344.00
             1383.60,320.67 1385.84,315.66 1394.77,294.00
             1394.77,294.00 1401.25,278.00 1401.25,278.00
             1401.25,278.00 1410.75,259.00 1410.75,259.00
             1412.50,255.46 1414.53,252.06 1413.29,248.00
             1410.89,240.21 1396.51,226.45 1390.73,219.82
             1383.06,211.01 1375.30,188.72 1375.01,177.00
             1374.90,172.28 1374.93,167.31 1377.10,163.00
             1382.86,151.53 1389.77,154.44 1398.00,160.67
             1398.00,160.67 1403.94,165.21 1403.94,165.21
             1409.62,170.53 1408.90,175.30 1410.52,182.00
             1411.88,187.60 1416.13,196.86 1420.04,201.00
             1423.54,204.70 1427.39,209.19 1432.99,207.11
             1438.76,204.95 1442.67,195.89 1446.34,191.00
             1452.49,182.81 1467.03,159.63 1473.10,154.39
             1475.13,152.63 1481.40,149.25 1484.00,147.92 Z
           M 901.00,161.61
           C 914.62,159.04 925.64,163.19 931.74,176.00
             933.81,180.35 934.91,186.26 933.49,191.00
             932.70,193.63 930.82,196.02 928.91,197.94
             922.00,204.85 917.22,200.64 909.00,200.21
             906.39,200.07 901.64,200.89 899.00,201.45
             882.07,205.04 873.29,214.08 861.96,226.00
             854.75,233.60 847.40,244.99 848.18,256.00
             848.64,262.43 849.22,270.10 851.78,276.00
             859.59,293.94 866.76,300.22 869.15,305.00
             869.15,305.00 873.50,319.00 873.50,319.00
             875.31,324.72 877.32,327.25 877.82,334.00
             878.48,342.95 873.07,351.05 867.36,357.27
             863.46,361.51 862.03,364.27 856.00,366.06
             851.65,367.35 843.62,367.99 839.00,368.00
             839.00,368.00 827.00,368.00 827.00,368.00
             817.89,367.89 813.19,365.21 805.00,362.38
             800.44,360.81 798.63,361.11 794.00,358.48
             790.67,356.59 788.88,354.82 786.00,352.43
             782.56,349.59 778.60,347.00 776.44,342.99
             774.94,340.20 772.22,331.13 772.50,328.00
             772.50,328.00 772.50,320.00 772.50,320.00
             772.61,315.77 773.72,312.06 779.00,313.90
             782.93,315.26 787.31,320.77 791.00,323.35
             797.41,327.84 812.06,332.90 820.00,333.00
             826.93,333.08 838.05,332.40 838.65,323.00
             838.84,319.98 836.37,315.76 835.08,313.00
             835.08,313.00 824.26,292.00 824.26,292.00
             816.90,277.64 815.98,266.65 816.00,251.00
             816.03,233.94 821.10,225.56 830.56,212.00
             830.56,212.00 835.63,204.17 835.63,204.17
             835.63,204.17 844.00,196.00 844.00,196.00
             862.49,177.72 876.36,169.42 901.00,161.61 Z
           M 1114.00,164.54
           C 1107.17,165.11 1086.20,167.89 1081.30,171.70
             1075.73,176.04 1075.74,183.70 1073.55,190.00
             1073.55,190.00 1061.09,219.00 1061.09,219.00
             1061.09,219.00 1058.54,228.00 1058.54,228.00
             1055.25,236.79 1041.38,259.20 1061.00,258.95
             1066.27,258.88 1073.00,256.91 1078.00,255.22
             1095.71,249.26 1095.66,247.51 1110.00,236.29
             1110.00,236.29 1121.00,228.67 1121.00,228.67
             1126.50,224.13 1141.34,208.76 1145.88,203.00
             1148.22,200.03 1150.54,196.41 1152.18,193.00
             1153.42,190.43 1154.28,187.83 1154.70,185.00
             1155.14,181.99 1155.24,177.77 1153.83,175.01
             1148.19,164.04 1124.70,163.67 1114.00,164.54 Z
           M 774.00,177.41
           C 776.98,177.06 780.03,176.74 783.00,177.41
             785.77,177.99 788.58,179.56 791.00,181.02
             798.39,185.48 799.59,190.01 793.61,196.83
             792.31,198.31 790.62,199.66 789.00,200.78
             785.32,203.31 783.75,203.50 780.00,205.17
             780.00,205.17 769.00,210.30 769.00,210.30
             769.00,210.30 741.00,218.21 741.00,218.21
             741.00,218.21 732.00,222.26 732.00,222.26
             720.04,227.39 709.83,233.03 710.08,248.00
             710.16,252.52 712.15,256.27 717.00,256.82
             721.02,257.27 726.96,254.98 731.00,254.32
             737.39,253.29 744.02,254.04 750.00,256.45
             756.84,259.21 763.93,263.10 760.40,271.91
             758.47,276.73 748.57,280.52 744.00,282.76
             724.70,292.20 720.13,289.51 704.00,296.83
             697.64,299.71 691.18,303.45 688.05,310.00
             684.91,316.59 682.26,331.12 685.15,338.00
             686.78,341.90 690.24,346.48 695.00,345.42
             700.97,344.10 720.09,330.57 726.00,326.50
             730.29,323.55 734.62,319.46 740.00,319.06
             757.85,317.72 751.50,341.64 744.73,350.00
             741.36,354.15 737.08,357.41 733.28,361.13
             733.28,361.13 722.91,371.10 722.91,371.10
             717.77,375.27 714.43,376.62 709.00,379.72
             709.00,379.72 702.00,383.82 702.00,383.82
             689.48,389.66 675.40,390.01 664.02,381.39
             658.86,377.48 656.54,371.33 653.18,366.00
             648.54,358.64 648.01,353.52 648.00,345.00
             648.00,345.00 648.00,327.00 648.00,327.00
             648.00,327.00 649.54,302.00 649.54,302.00
             649.22,299.38 647.40,295.39 647.09,290.00
             646.34,277.02 653.49,277.67 659.61,270.00
             663.79,264.76 665.74,258.15 668.06,252.00
             669.04,249.43 670.93,245.64 671.10,243.00
             671.79,232.20 646.95,220.11 657.70,206.21
             663.96,198.10 679.57,197.46 689.00,195.11
             689.00,195.11 704.00,192.10 704.00,192.10
             704.00,192.10 726.00,186.51 726.00,186.51
             726.00,186.51 739.00,184.69 739.00,184.69
             739.00,184.69 752.00,180.38 752.00,180.38
             752.00,180.38 759.00,179.79 759.00,179.79
             759.00,179.79 766.00,178.21 766.00,178.21
             766.00,178.21 774.00,177.41 774.00,177.41 Z
           M 1539.00,181.57
           C 1544.40,180.55 1548.62,181.03 1554.00,181.57
             1557.86,181.84 1559.90,181.42 1564.00,182.34
             1585.82,187.21 1610.74,205.11 1625.79,221.17
             1629.80,225.45 1630.14,229.36 1634.21,233.96
             1634.21,233.96 1642.37,242.04 1642.37,242.04
             1642.37,242.04 1648.86,254.00 1648.86,254.00
             1657.34,269.20 1662.94,282.22 1659.18,300.00
             1658.12,305.03 1653.19,316.92 1650.36,321.00
             1650.36,321.00 1644.59,328.00 1644.59,328.00
             1641.75,331.71 1640.67,333.57 1637.00,336.87
             1633.97,339.60 1627.64,343.49 1624.00,345.86
             1604.01,358.83 1589.68,365.56 1567.00,372.62
             1567.00,372.62 1560.00,375.47 1560.00,375.47
             1552.26,378.37 1551.39,377.99 1544.00,379.46
             1544.00,379.46 1534.00,382.51 1534.00,382.51
             1528.50,383.99 1512.41,386.22 1507.00,385.91
             1497.77,385.38 1492.74,383.45 1485.00,378.54
             1481.85,376.53 1478.29,373.93 1477.60,370.00
             1477.60,370.00 1480.00,351.00 1480.00,351.00
             1480.25,329.57 1485.96,320.32 1493.69,301.00
             1493.69,301.00 1498.03,287.00 1498.03,287.00
             1498.03,287.00 1503.23,273.00 1503.23,273.00
             1503.23,273.00 1516.54,238.00 1516.54,238.00
             1516.54,238.00 1524.55,210.00 1524.55,210.00
             1527.53,197.42 1523.60,187.45 1539.00,181.57 Z
           M 1292.00,215.39
           C 1285.43,217.51 1284.48,220.33 1279.00,223.83
             1269.38,229.98 1256.04,245.41 1249.46,255.00
             1249.46,255.00 1245.45,262.00 1245.45,262.00
             1241.73,268.00 1235.10,279.28 1233.53,286.00
             1230.10,300.65 1233.11,322.52 1252.00,323.90
             1255.33,324.15 1257.79,323.54 1261.00,323.15
             1261.00,323.15 1273.00,321.40 1273.00,321.40
             1285.34,318.07 1305.81,304.20 1313.39,294.00
             1320.05,285.05 1323.18,274.73 1325.34,264.00
             1325.80,261.68 1326.70,251.05 1326.39,249.00
             1324.03,233.90 1308.88,213.15 1292.00,215.39 Z
           M 586.00,276.00
           C 583.07,276.41 575.47,277.82 573.09,279.16
             569.84,280.99 561.00,291.63 557.95,294.99
             557.95,294.99 550.23,303.32 550.23,303.32
             539.35,317.34 526.80,346.94 519.73,364.00
             513.56,378.89 510.59,400.77 491.00,402.70
             481.45,403.64 477.79,398.62 474.22,391.00
             473.14,388.70 471.93,386.51 471.15,384.00
             471.15,384.00 471.15,377.00 471.15,377.00
             470.59,373.12 468.89,369.54 469.25,366.00
             469.25,366.00 474.41,349.00 474.41,349.00
             474.41,349.00 475.41,342.00 475.41,342.00
             475.41,342.00 478.31,335.00 478.31,335.00
             478.31,335.00 481.76,319.00 481.76,319.00
             481.76,319.00 486.12,304.00 486.12,304.00
             486.12,304.00 488.60,291.00 488.60,291.00
             488.60,291.00 491.27,283.00 491.27,283.00
             491.89,280.83 492.86,277.49 490.60,275.90
             487.68,273.85 482.34,277.46 480.17,279.38
             473.43,285.34 467.39,295.88 463.66,304.00
             463.66,304.00 451.18,330.00 451.18,330.00
             451.18,330.00 447.25,342.00 447.25,342.00
             447.25,342.00 440.73,357.00 440.73,357.00
             440.73,357.00 436.12,373.00 436.12,373.00
             436.12,373.00 430.90,388.00 430.90,388.00
             430.90,388.00 427.01,401.00 427.01,401.00
             423.48,409.55 414.05,412.63 406.00,408.20
             391.53,400.23 394.64,388.68 399.06,376.00
             399.06,376.00 402.06,366.00 402.06,366.00
             402.06,366.00 406.80,355.00 406.80,355.00
             406.80,355.00 415.64,334.00 415.64,334.00
             415.64,334.00 425.98,308.00 425.98,308.00
             425.98,308.00 433.95,294.00 433.95,294.00
             433.95,294.00 437.26,287.00 437.26,287.00
             437.26,287.00 441.80,280.00 441.80,280.00
             441.80,280.00 459.53,252.00 459.53,252.00
             459.53,252.00 465.47,243.00 465.47,243.00
             465.47,243.00 477.91,230.00 477.91,230.00
             481.49,226.16 484.45,221.82 489.00,218.95
             497.41,213.77 503.84,214.28 512.00,218.95
             516.05,221.22 517.75,221.90 520.44,226.02
             525.47,233.70 526.62,243.08 526.81,252.00
             526.96,258.86 526.91,268.85 535.00,271.68
             540.75,273.69 547.36,261.81 550.46,258.00
             558.86,247.69 567.96,237.62 579.00,230.16
             582.79,227.61 587.40,223.81 592.00,223.23
             595.42,222.79 597.79,223.93 601.00,224.65
             603.39,225.18 604.61,225.15 607.00,226.22
             622.05,233.01 621.16,254.19 621.00,268.00
             621.00,268.00 620.22,277.00 620.22,277.00
             619.96,281.77 621.24,281.40 620.22,288.00
             620.22,288.00 617.46,302.00 617.46,302.00
             617.46,302.00 615.26,309.00 615.26,309.00
             615.26,309.00 613.76,321.00 613.76,321.00
             613.76,321.00 610.33,332.00 610.33,332.00
             608.85,338.13 606.78,348.52 604.50,354.00
             599.55,365.94 604.22,371.76 596.57,381.96
             593.57,385.97 590.36,388.96 585.00,388.27
             576.86,387.23 571.63,378.45 570.17,371.00
             570.17,371.00 570.17,358.00 570.17,358.00
             570.09,350.53 571.22,350.58 571.83,345.00
             571.83,345.00 574.29,323.00 574.29,323.00
             574.29,323.00 577.43,314.00 577.43,314.00
             581.21,301.59 584.95,288.96 586.00,276.00 Z
           M 1562.02,223.43
           C 1552.48,227.39 1552.58,241.43 1549.91,250.00
             1549.91,250.00 1534.45,290.00 1534.45,290.00
             1534.45,290.00 1525.55,314.00 1525.55,314.00
             1521.51,324.02 1520.80,322.20 1518.19,334.00
             1517.73,336.03 1516.40,339.90 1516.94,341.79
             1518.41,346.88 1527.08,346.16 1531.00,345.25
             1546.76,341.60 1554.24,338.87 1569.00,332.58
             1584.18,326.11 1582.07,326.90 1596.00,318.46
             1609.04,310.56 1620.60,302.80 1620.99,286.00
             1621.19,277.01 1620.39,277.50 1616.46,270.00
             1608.05,253.95 1607.62,258.26 1598.87,246.00
             1591.19,235.24 1576.39,221.27 1562.02,223.43 Z
           M 330.00,236.70
           C 336.45,235.33 337.17,237.29 343.00,238.96
             350.10,241.00 356.49,243.45 361.45,249.29
             368.42,257.50 369.38,273.67 370.09,284.00
             370.09,284.00 370.96,295.00 370.96,295.00
             370.96,295.00 369.00,320.00 369.00,320.00
             369.13,330.77 372.75,331.13 371.53,338.00
             370.07,346.21 363.79,347.14 360.60,358.00
             360.60,358.00 357.40,373.00 357.40,373.00
             357.40,373.00 348.90,406.00 348.90,406.00
             348.90,406.00 346.07,418.00 346.07,418.00
             346.07,418.00 341.98,430.00 341.98,430.00
             341.98,430.00 340.51,438.00 340.51,438.00
             338.22,446.51 334.10,454.75 324.00,453.94
             312.55,453.03 314.91,437.20 315.00,429.00
             315.00,429.00 321.00,383.00 321.00,383.00
             321.67,375.76 325.34,371.06 317.96,365.65
             313.27,362.22 308.35,362.86 303.00,363.75
             303.00,363.75 292.00,366.33 292.00,366.33
             282.44,368.40 270.96,369.15 263.29,376.27
             256.39,382.68 253.57,392.98 248.87,395.69
             244.97,397.93 236.64,396.15 234.74,391.86
             233.71,389.55 233.97,381.87 234.00,379.00
             234.00,379.00 236.63,351.00 236.63,351.00
             238.69,343.77 245.66,337.63 249.68,330.00
             249.68,330.00 268.32,298.00 268.32,298.00
             268.32,298.00 277.39,287.00 277.39,287.00
             277.39,287.00 282.61,279.00 282.61,279.00
             285.87,274.59 293.01,266.99 297.00,263.00
             297.00,263.00 310.04,249.21 310.04,249.21
             313.20,246.38 326.01,238.41 330.00,236.70 Z
           M 329.00,281.30
           C 326.86,281.72 325.03,282.02 323.09,283.13
             314.64,287.95 301.35,305.07 297.02,314.00
             294.14,319.92 293.83,331.00 303.00,330.35
             303.00,330.35 313.00,328.61 313.00,328.61
             320.31,327.24 329.43,326.69 333.03,318.98
             333.85,317.24 334.67,313.94 335.11,312.00
             335.11,312.00 336.44,302.00 336.44,302.00
             337.67,294.18 341.68,280.47 329.00,281.30 Z
           M 1110.00,282.32
           C 1098.69,284.89 1087.39,293.97 1077.00,299.04
             1072.61,301.18 1067.68,301.37 1063.00,302.64
             1063.00,302.64 1050.00,307.48 1050.00,307.48
             1050.00,307.48 1038.00,310.66 1038.00,310.66
             1034.62,311.00 1028.93,308.99 1023.13,314.27
             1016.55,320.27 1013.62,334.38 1013.09,343.00
             1012.64,350.23 1014.94,355.24 1023.00,354.90
             1023.00,354.90 1042.00,350.31 1042.00,350.31
             1042.00,350.31 1057.00,347.57 1057.00,347.57
             1057.00,347.57 1082.00,338.46 1082.00,338.46
             1082.00,338.46 1095.00,333.91 1095.00,333.91
             1102.31,330.93 1120.46,321.53 1127.00,317.20
             1133.01,313.23 1151.02,302.70 1153.98,296.91
             1157.17,290.65 1151.30,286.25 1146.00,284.59
             1136.57,281.65 1119.85,281.24 1110.00,282.32 Z" />
</svg>
